<svg width="18" height="18" viewBox="0 0 18 18" fill="none" xmlns="http://www.w3.org/2000/svg">
<path fill-rule="evenodd" clip-rule="evenodd" d="M1.44231 17.3175C1.44231 17.3175 0 17.3175 0 15.8744C0 14.4313 1.44231 10.1019 8.65385 10.1019C15.8654 10.1019 17.3077 14.4313 17.3077 15.8744C17.3077 17.3175 15.8654 17.3175 15.8654 17.3175H1.44231ZM8.65385 8.65877C9.80142 8.65877 10.902 8.20264 11.7134 7.39072C12.5249 6.5788 12.9808 5.47761 12.9808 4.32938C12.9808 3.18116 12.5249 2.07996 11.7134 1.26805C10.902 0.45613 9.80142 0 8.65385 0C7.50627 0 6.4057 0.45613 5.59425 1.26805C4.78279 2.07996 4.32692 3.18116 4.32692 4.32938C4.32692 5.47761 4.78279 6.5788 5.59425 7.39072C6.4057 8.20264 7.50627 8.65877 8.65385 8.65877Z" fill="#A4A4A4"/>
</svg>
